<mxfile host="app.diagrams.net" modified="2022-10-13T14:08:54.897Z" agent="5.0 (Windows NT 10.0; Win64; x64) AppleWebKit/537.36 (KHTML, like Gecko) Chrome/106.0.0.0 Safari/537.36 Edg/106.0.1370.42" etag="L0lRIrTAvCAReeHBY8ZU" version="20.4.0" type="github">
  <diagram id="tphyFNruu1raeEzAlnd8" name="Trang-1">
    <mxGraphModel dx="1038" dy="585" grid="1" gridSize="10" guides="1" tooltips="1" connect="1" arrows="1" fold="1" page="1" pageScale="1" pageWidth="827" pageHeight="1169" math="0" shadow="0">
      <root>
        <mxCell id="0" />
        <mxCell id="1" parent="0" />
        <mxCell id="Mr4dtUC0ASz8ZPx-Dsqs-5" value="" style="rounded=0;whiteSpace=wrap;html=1;" vertex="1" parent="1">
          <mxGeometry x="350" y="270" width="120" height="60" as="geometry" />
        </mxCell>
        <mxCell id="Mr4dtUC0ASz8ZPx-Dsqs-6" value="&lt;h1&gt;hhhjkl;o&lt;/h1&gt;" style="text;html=1;strokeColor=none;fillColor=none;spacing=5;spacingTop=-20;whiteSpace=wrap;overflow=hidden;rounded=0;" vertex="1" parent="1">
          <mxGeometry x="320" y="240" width="190" height="120" as="geometry" />
        </mxCell>
        <mxCell id="Mr4dtUC0ASz8ZPx-Dsqs-7" value="" style="endArrow=classic;html=1;rounded=0;" edge="1" parent="1" target="Mr4dtUC0ASz8ZPx-Dsqs-6">
          <mxGeometry width="50" height="50" relative="1" as="geometry">
            <mxPoint x="310" y="200" as="sourcePoint" />
            <mxPoint x="440" y="280" as="targetPoint" />
          </mxGeometry>
        </mxCell>
        <mxCell id="Mr4dtUC0ASz8ZPx-Dsqs-8" value="" style="curved=1;endArrow=classic;html=1;rounded=0;" edge="1" parent="1" target="Mr4dtUC0ASz8ZPx-Dsqs-6">
          <mxGeometry width="50" height="50" relative="1" as="geometry">
            <mxPoint x="260" y="320" as="sourcePoint" />
            <mxPoint x="440" y="280" as="targetPoint" />
            <Array as="points">
              <mxPoint x="330" y="320" />
              <mxPoint x="380" y="240" />
            </Array>
          </mxGeometry>
        </mxCell>
      </root>
    </mxGraphModel>
  </diagram>
</mxfile>
